# xmcd
#
# Track frame offsets: 
#        150
#        18914
#        39503
#        55452
#        71099
#        93249
#        121709
#        143124
#        166137
#        191977
#        213859
#        229414
#        250039
#
# Disc length: 3641 seconds
#
# Revision: 0
# Processed by: cddbd v1.5.1PL0 Copyright (c) Steve Scherf et al.
# Submitted via: ExactAudioCopy v0.95a5
#
DISCID=b10e370d
DTITLE=Rolling Stones - Shine A Light [CD1)
DYEAR=1999
DGENRE=Rock
TTITLE0=Jumping Jack Flash
TTITLE1=Live With Me
TTITLE2=Respectable
TTITLE3=You Got Me Rocking
TTITLE4=Honky Tonk Women
TTITLE5=Memory Motel
TTITLE6=Shine A Light
TTITLE7=Some Girls
TTITLE8=Saint Of Me
TTITLE9=Paint It, Black
TTITLE10=Band Introductions
TTITLE11=You Got The Silver
TTITLE12=You Don't Have To Mean It
EXTD=
EXTT0=
EXTT1=
EXTT2=
EXTT3=
EXTT4=
EXTT5=
EXTT6=
EXTT7=
EXTT8=
EXTT9=
EXTT10=
EXTT11=
EXTT12=
PLAYORDER=
